<svg width="16" height="15" viewBox="0 0 16 15" fill="none" xmlns="http://www.w3.org/2000/svg">
<path d="M9.20703 0C9.38433 -2.78834e-07 9.53766 -0.00120384 9.68457 0.015625C10.3501 0.0919618 10.9515 0.442709 11.3457 0.979492L11.4219 1.08887V1.08984C11.4621 1.15167 11.4994 1.21667 11.5361 1.28613L11.6484 1.50879H11.6494C11.6728 1.55559 11.6843 1.58039 11.6934 1.59766L11.6943 1.59961H12.6396C13.0744 1.59961 13.449 1.59896 13.7559 1.62402C14.0721 1.64986 14.3868 1.70717 14.6895 1.86133C15.1409 2.09136 15.5082 2.45862 15.7383 2.91016C15.8925 3.21279 15.9497 3.52755 15.9756 3.84375C16.0007 4.15067 16 4.52517 16 4.95996V11.04C16 11.4748 16.0007 11.8494 15.9756 12.1562C15.9497 12.4724 15.8925 12.7873 15.7383 13.0898C15.5082 13.5412 15.1409 13.9087 14.6895 14.1387C14.3868 14.2928 14.072 14.3501 13.7559 14.376C13.449 14.401 13.0744 14.3994 12.6396 14.3994H3.36035C2.92561 14.3994 2.55104 14.401 2.24414 14.376C1.92786 14.3501 1.61326 14.2919 1.31055 14.1377C0.859099 13.9077 0.491755 13.5411 0.261719 13.0898C0.107539 12.7873 0.0502708 12.4724 0.0244141 12.1562C-0.000652372 11.8494 -1.61772e-07 11.4748 0 11.04V4.95996C0 4.52516 -0.000656485 4.15067 0.0244141 3.84375C0.050263 3.52754 0.107512 3.2128 0.261719 2.91016C0.491802 2.45867 0.859048 2.09139 1.31055 1.86133C1.61318 1.70718 1.92795 1.64986 2.24414 1.62402C2.55104 1.59896 2.9256 1.59961 3.36035 1.59961H4.30469L4.30664 1.59766C4.31582 1.58024 4.32813 1.55566 4.35156 1.50879L4.46387 1.28613C4.50072 1.21647 4.53769 1.15089 4.57812 1.08887L4.6543 0.979492C5.04844 0.442598 5.64976 0.0919707 6.31543 0.015625C6.46234 -0.00120384 6.61567 -2.78834e-07 6.79297 0H9.20703ZM6.49805 1.60547C6.27611 1.6309 6.07572 1.74779 5.94434 1.92676L5.91895 1.96289C5.89997 1.992 5.87885 2.03137 5.78223 2.22461C5.75577 2.27753 5.72334 2.34277 5.68555 2.4082L5.64551 2.47363C5.38527 2.87273 4.96067 3.13524 4.4873 3.18945C4.38599 3.20103 4.28289 3.2002 4.2041 3.2002H3.36035C2.89919 3.2002 2.60068 3.20024 2.37402 3.21875C2.15735 3.23648 2.07672 3.26697 2.03711 3.28711C1.88664 3.36377 1.7642 3.48627 1.6875 3.63672C1.66735 3.67629 1.63689 3.75737 1.61914 3.97461C1.60066 4.20122 1.59961 4.49902 1.59961 4.95996V11.04C1.59961 11.501 1.60064 11.7988 1.61914 12.0254C1.63689 12.2426 1.66736 12.3237 1.6875 12.3633L1.71777 12.418C1.78361 12.5253 1.87422 12.6158 1.98145 12.6816L2.03711 12.7129L2.0752 12.7295C2.12468 12.7473 2.21116 12.7679 2.37402 12.7812C2.60068 12.7998 2.89918 12.7998 3.36035 12.7998H12.6396C13.1008 12.7998 13.3993 12.7998 13.626 12.7812C13.8425 12.7635 13.9233 12.733 13.9629 12.7129C14.1132 12.6363 14.2358 12.5136 14.3125 12.3633C14.3326 12.3237 14.3631 12.2427 14.3809 12.0254C14.3994 11.7988 14.4004 11.501 14.4004 11.04V4.95996C14.4004 4.49902 14.3993 4.20122 14.3809 3.97461C14.3631 3.75735 14.3327 3.67628 14.3125 3.63672C14.2455 3.50528 14.1437 3.39519 14.0186 3.31836L13.9629 3.28711C13.9233 3.26698 13.8427 3.23648 13.626 3.21875C13.3993 3.20024 13.1008 3.2002 12.6396 3.2002H11.7959C11.7169 3.2002 11.6131 3.20104 11.5117 3.18945C11.0385 3.13507 10.6146 2.87236 10.3545 2.47363C10.2987 2.38802 10.2531 2.29539 10.2178 2.22461L10.1201 2.03223C10.1005 1.99475 10.0906 1.97751 10.0811 1.96289L10.0283 1.8916C9.89729 1.73251 9.70902 1.6292 9.50195 1.60547C9.46747 1.60153 9.42268 1.59961 9.20703 1.59961H6.79297C6.57732 1.59961 6.53253 1.60153 6.49805 1.60547ZM8 4.7998C9.76734 4.79982 11.2002 6.23266 11.2002 8C11.2001 9.76728 9.76729 11.2002 8 11.2002C6.2327 11.2002 4.79988 9.76728 4.7998 8C4.7998 6.23265 6.23265 4.7998 8 4.7998ZM8 6.39941C7.11631 6.39941 6.40039 7.11631 6.40039 8C6.40047 8.88363 7.11635 9.59961 8 9.59961C8.88363 9.5996 9.59953 8.88362 9.59961 8C9.59961 7.11632 8.88368 6.39943 8 6.39941Z" fill="#93A3B8"/>
</svg>
