<svg width="30" height="30" viewBox="0 0 30 30" fill="none" xmlns="http://www.w3.org/2000/svg">
<rect width="30" height="30" rx="6" fill="#2D303D"/>
<path d="M18 9H8C7.44772 9 7 9.41041 7 9.91667V19.0833C7 19.5896 7.44772 20 8 20H18C18.5523 20 19 19.5896 19 19.0833V9.91667C19 9.41041 18.5523 9 18 9Z" fill="#2CA9BC"/>
<path d="M7.9 9.85714V19.1429H17.4V9.85714H7.9ZM19.3 12.3338V16.6658L23.1 18.2092V10.7904L19.3 12.3338ZM19.3 10.3229L22.3745 9.07402L22.3779 9.07257C22.6657 8.95698 22.9785 8.91226 23.2881 8.94235C23.5978 8.97247 23.895 9.07653 24.1539 9.24523C24.4128 9.41395 24.6254 9.64229 24.7729 9.9101C24.9204 10.1779 24.9984 10.4769 25 10.781V18.219C24.9984 18.5231 24.9204 18.8221 24.7729 19.0899C24.6254 19.3577 24.4128 19.586 24.1539 19.7548C23.895 19.9235 23.5978 20.0275 23.2881 20.0576C22.9785 20.0877 22.6657 20.043 22.3779 19.9274L22.3745 19.926L19.3 18.6768V19.1429C19.3 19.6354 19.0997 20.1076 18.7434 20.4559C18.387 20.8042 17.9039 21 17.4 21H7.9C7.39609 21 6.91296 20.8042 6.55664 20.4559C6.20032 20.1076 6 19.6354 6 19.1429V9.85714C6 9.3646 6.20032 8.89237 6.55664 8.54408C6.91296 8.1958 7.39609 8 7.9 8H17.4C17.9039 8 18.387 8.1958 18.7434 8.54408C19.0997 8.89237 19.3 9.3646 19.3 9.85714V10.3229Z" fill="white"/>
</svg>
