<svg width="30" height="30" viewBox="0 0 30 30" fill="none" xmlns="http://www.w3.org/2000/svg">
<rect width="30" height="30" rx="6" fill="#3D2F2F"/>
<path fill-rule="evenodd" clip-rule="evenodd" d="M22.9664 18.0048C22.7883 22.2584 19.2849 25.6526 14.9875 25.6526C10.5761 25.6526 7.00001 21.9563 7.00001 17.6651C7.00001 17.0915 6.98972 15.9453 7.84974 14.0113C8.36442 12.8538 8.68724 12.1267 8.86942 11.4621C8.96952 11.0968 9.16419 10.5164 9.71915 11.4621C10.0464 12.0197 10.059 12.8216 10.059 12.8216C10.059 12.8216 11.2765 11.8874 12.0984 10.1025C13.3032 7.48591 12.3419 5.9218 12.0134 4.83415C11.8997 4.45788 11.8284 3.78167 12.6082 4.06939C13.4029 4.36263 15.5038 5.83326 16.602 7.38334C18.1693 9.59562 18.7263 11.717 18.7263 11.717C18.7263 11.717 19.2282 11.0941 19.4061 10.4424C19.6071 9.70643 19.61 8.97753 20.2558 9.76268C20.8699 10.5093 21.7819 11.9125 22.2952 13.2465C23.2273 15.669 22.9664 18.0048 22.9664 18.0048Z" fill="url(#paint0_linear_38785_62239)"/>
<path fill-rule="evenodd" clip-rule="evenodd" d="M14.9875 25.6527C11.937 25.6527 9.46423 23.1798 9.46423 20.1294C9.46423 18.2888 10.206 17.1713 11.7497 15.6559C12.7381 14.6856 13.6632 13.4938 14.0564 12.6823C14.1338 12.5226 14.3099 11.6901 14.9891 12.6648C15.3454 13.176 15.9039 14.0852 16.2621 14.861C16.8795 16.1988 17.0269 17.4952 17.0269 17.4952C17.0269 17.4952 17.632 17.1387 18.0465 16.2206C18.1802 15.9247 18.4504 14.8046 19.2058 15.9246C19.7601 16.7464 20.5216 18.2241 20.5108 20.1294C20.5108 23.1798 18.0379 25.6527 14.9875 25.6527Z" fill="#FC9502"/>
<path fill-rule="evenodd" clip-rule="evenodd" d="M15.0725 19.6195C15.8585 19.6195 15.8585 21.075 16.8569 23.0184C17.5217 24.3125 16.5273 25.6526 15.0725 25.6526C13.6176 25.6526 12.8632 24.4733 12.8632 23.0184C12.8632 21.5637 14.2865 19.6195 15.0725 19.6195Z" fill="#FCE202"/>
<defs>
<linearGradient id="paint0_linear_38785_62239" x1="14.9995" y1="25.6686" x2="14.9995" y2="4.01636" gradientUnits="userSpaceOnUse">
<stop stop-color="#FF4C0D"/>
<stop offset="1" stop-color="#FC9502"/>
</linearGradient>
</defs>
</svg>
