<svg width="16" height="16" viewBox="0 0 16 16" fill="none" xmlns="http://www.w3.org/2000/svg">
<path d="M8 0C8.52696 0 9.00597 0.150731 9.52539 0.40332C9.90638 0.588601 10.3322 0.84122 10.832 1.14844L12.8457 2.39648C13.5424 2.8289 14.0993 3.17416 14.5273 3.50195C14.9654 3.83742 15.3019 4.17911 15.5449 4.62305C15.7875 5.06619 15.8968 5.53837 15.9492 6.0957C16.0005 6.64163 16 7.31056 16 8.15137V9.28418C16 10.7202 16.0015 11.8516 15.8867 12.7344C15.7774 13.5753 15.5547 14.2648 15.0713 14.8193L14.9717 14.9277C14.4157 15.5028 13.7078 15.76 12.832 15.8818C11.9741 16.0012 10.8752 16 9.48828 16H6.51172C5.12477 16 4.02594 16.0012 3.16797 15.8818C2.29218 15.76 1.58429 15.5028 1.02832 14.9277C0.475032 14.3553 0.229856 13.6312 0.113281 12.7344C-0.00145473 11.8516 -2.30283e-07 10.7202 0 9.28418V8.15137C-1.30261e-07 7.31056 -0.000490122 6.64163 0.0507812 6.0957C0.103158 5.53837 0.212518 5.06619 0.455078 4.62305C0.698142 4.17911 1.03462 3.83741 1.47266 3.50195C1.90068 3.17416 2.45757 2.82889 3.1543 2.39648L4.64258 1.47363C5.37895 1.01662 5.96665 0.650348 6.47461 0.40332C6.99403 0.15073 7.47304 1.2276e-07 8 0ZM8 1.11621C7.7025 1.11621 7.39572 1.19676 6.96289 1.40723C6.51861 1.62329 5.98727 1.95279 5.23145 2.42188L3.74316 3.3457C3.02816 3.78945 2.52582 4.10191 2.15137 4.38867C1.78715 4.66763 1.57687 4.89743 1.43359 5.15918C1.28983 5.42186 1.20633 5.72973 1.16211 6.2002C1.11688 6.68195 1.11621 7.29002 1.11621 8.15137V9.28418C1.11621 10.7507 1.1175 11.7968 1.2207 12.5908C1.32209 13.3705 1.51279 13.8231 1.83105 14.1523L1.8916 14.2119C2.20176 14.5028 2.62367 14.6792 3.32227 14.7764C4.08548 14.8825 5.09228 14.8838 6.51172 14.8838H9.48828C10.9077 14.8838 11.9145 14.8825 12.6777 14.7764C13.4228 14.6727 13.8532 14.479 14.1689 14.1523L14.2266 14.0889C14.5101 13.7651 14.6843 13.3216 14.7793 12.5908C14.8825 11.7968 14.8838 10.7507 14.8838 9.28418V8.15137C14.8838 7.29002 14.8831 6.68195 14.8379 6.2002C14.7937 5.72973 14.7102 5.42186 14.5664 5.15918C14.4231 4.89743 14.2128 4.66763 13.8486 4.38867C13.4742 4.10191 12.9718 3.78946 12.2568 3.3457L10.7686 2.42188C10.0127 1.9528 9.48139 1.62329 9.03711 1.40723C8.60427 1.19675 8.2975 1.11621 8 1.11621ZM10.2324 11.9072C10.5406 11.9072 10.7909 12.1567 10.791 12.4648C10.791 12.7731 10.5407 13.0234 10.2324 13.0234H5.76758C5.45933 13.0234 5.20898 12.7731 5.20898 12.4648C5.20913 12.1567 5.45942 11.9072 5.76758 11.9072H10.2324Z" fill="#0088FF"/>
</svg>
