<svg width="17" height="13" viewBox="0 0 17 13" fill="none" xmlns="http://www.w3.org/2000/svg">
<path d="M16.0556 11.1429C16.5772 11.1429 17 11.5586 17 12.0714C17 12.5843 16.5772 13 16.0556 13H0.944444C0.422842 13 0 12.5843 0 12.0714C0 11.5586 0.422842 11.1429 0.944444 11.1429H16.0556ZM16.0556 5.57143C16.5772 5.57143 17 5.98716 17 6.5C17 7.01284 16.5772 7.42857 16.0556 7.42857H0.944444C0.422842 7.42857 0 7.01284 0 6.5C0 5.98716 0.422842 5.57143 0.944444 5.57143H16.0556ZM16.0556 0C16.5772 0 17 0.415736 17 0.928571C17 1.44141 16.5772 1.85714 16.0556 1.85714H0.944444C0.422842 1.85714 0 1.44141 0 0.928571C0 0.415736 0.422842 0 0.944444 0H16.0556Z" fill="#F6F8FA"/>
</svg>
