<svg width="15" height="16" viewBox="0 0 15 16" fill="none" xmlns="http://www.w3.org/2000/svg">
<path d="M13.3333 10.24C13.3333 9.55472 13.3327 9.08881 13.3021 8.72875C13.2722 8.37809 13.2181 8.19859 13.1517 8.07344C12.9919 7.77245 12.737 7.52774 12.4235 7.37437C12.2958 7.31194 12.1165 7.26196 11.7734 7.23281L11.6159 7.22156C11.2542 7.20035 10.7992 7.2 10.1667 7.2H4.83333C4.3589 7.2 3.98436 7.20033 3.67415 7.20937L3.38412 7.22156C2.93593 7.24782 2.72268 7.30308 2.57682 7.37437C2.26325 7.52774 2.00809 7.77244 1.84831 8.07344C1.78189 8.19859 1.72777 8.37808 1.69792 8.72875C1.66727 9.08881 1.66667 9.55472 1.66667 10.24V11.36C1.66667 12.0453 1.66727 12.5112 1.69792 12.8712C1.72777 13.2219 1.78189 13.4014 1.84831 13.5266C2.00809 13.8276 2.26325 14.0723 2.57682 14.2256C2.70713 14.2893 2.89392 14.3413 3.25912 14.37C3.63419 14.3994 4.11952 14.4 4.83333 14.4H10.1667C10.8805 14.4 11.3658 14.3994 11.7409 14.37C12.1062 14.3413 12.2931 14.2894 12.4235 14.2256C12.737 14.0723 12.9919 13.8275 13.1517 13.5266C13.2181 13.4014 13.2722 13.2219 13.3021 12.8712C13.3327 12.5112 13.3333 12.0453 13.3333 11.36V10.24ZM6.66667 11.6V10C6.66667 9.55817 7.03976 9.2 7.5 9.2C7.96024 9.2 8.33333 9.55817 8.33333 10V11.6C8.33333 12.0418 7.96024 12.4 7.5 12.4C7.03976 12.4 6.66667 12.0418 6.66667 11.6ZM10.8333 4.8C10.8333 3.03269 9.34093 1.6 7.5 1.6C5.65905 1.6 4.16667 3.03269 4.16667 4.8V5.60219C4.37442 5.60081 4.59645 5.6 4.83333 5.6H10.1667C10.4036 5.6 10.6256 5.60081 10.8333 5.60219V4.8ZM12.5 5.72031C12.736 5.76999 12.9621 5.84219 13.18 5.94875C13.8072 6.25553 14.3172 6.74505 14.6367 7.34719C14.8428 7.73544 14.9249 8.14878 14.9632 8.59844C15.0007 9.03877 15 9.58112 15 10.24V11.36C15 12.0189 15.0007 12.5612 14.9632 13.0016C14.9249 13.4512 14.8428 13.8646 14.6367 14.2528C14.3172 14.8549 13.8072 15.3445 13.18 15.6512C12.7756 15.8491 12.345 15.9279 11.8766 15.9647C11.4179 16.0007 10.853 16 10.1667 16H4.83333C4.14702 16 3.58206 16.0007 3.12337 15.9647C2.65499 15.9279 2.22441 15.8491 1.81999 15.6512C1.1928 15.3445 0.682865 14.8549 0.363282 14.2528C0.157239 13.8646 0.0750601 13.4512 0.0367847 13.0016C-0.000691464 12.5612 8.79019e-07 12.0189 8.79019e-07 11.36V10.24C8.78918e-07 9.58112 -0.000691454 9.03877 0.0367847 8.59844C0.07506 8.14879 0.157239 7.73543 0.363282 7.34719C0.682865 6.74505 1.1928 6.25552 1.81999 5.94875C2.03788 5.84218 2.26402 5.76999 2.5 5.72031V4.8C2.5 2.14904 4.73858 0 7.5 0C10.2614 0 12.5 2.14903 12.5 4.8V5.72031Z" fill="#909EB4"/>
</svg>
