<svg width="5" height="10" viewBox="0 0 5 10" fill="none" xmlns="http://www.w3.org/2000/svg">
<path d="M4.01495 4.23157C4.02566 3.91372 3.81316 3.58962 3.35067 3.34855V2.75883C3.88682 2.4825 4.04173 2.13607 4.01495 1.84188V1.16332C4.01316 0.865114 3.81763 0.566458 3.4279 0.342355C2.63908 -0.112101 1.3641 -0.114334 0.580183 0.336998C-0.0564134 0.70351 0.00206767 1.15618 0.00206767 1.15618V1.84144C-0.0180213 2.12938 0.135994 2.47268 0.666342 2.74901C0.666342 2.74901 0.666342 3.38784 0.666342 3.33873C0.202957 3.57757 -0.00909285 3.90078 0.00206767 4.21863V4.88335C-0.019807 5.19674 0.172154 5.51459 0.589111 5.75476C1.37794 6.20922 2.65292 6.21145 3.43683 5.76012C3.85423 5.5195 4.04396 5.19941 4.01495 4.88335V4.23157Z" fill="#F05A28"/>
<path d="M4.01503 4.20566V4.88377C4.04404 5.19939 3.85431 5.51992 3.43691 5.76054C2.653 6.21188 1.37802 6.20964 0.589191 5.75519C0.172234 5.51501 -0.019727 5.19716 0.00214764 4.88377V4.19852C0.00393332 4.49539 0.195002 4.7927 0.589191 5.01948C1.37802 5.47394 2.653 5.47617 3.43691 5.02484C3.82887 4.79895 4.01637 4.50253 4.01503 4.20566ZM4.01503 1.1633C4.02083 2.22891 1.78114 2.66417 0.588745 1.97713C0.194555 1.7499 0.00348715 1.45258 0.00170146 1.15616V1.84141C-0.0183875 2.12936 0.135628 2.47265 0.665976 2.74899V3.54451H0.668654C0.661958 3.74808 0.79142 3.95343 1.06195 4.10923C1.58784 4.41235 2.43782 4.41369 2.96058 4.1128C3.23156 3.95656 3.35834 3.74986 3.34718 3.54451H3.3512V2.75836C3.88735 2.48203 4.04226 2.13561 4.01547 1.84141L4.01503 1.1633Z" fill="#BE1E2D"/>
<path d="M1.56189 6.06372V8.53555H1.56278C1.56278 8.53555 2.00786 9.37393 2.00831 9.37482L2.45473 8.53555V7.27307C2.28107 6.82442 2.06144 6.42264 1.80162 6.08515C1.72126 6.08024 1.64135 6.07443 1.56189 6.06372Z" fill="#72C0AB"/>
<path d="M1.80164 6.08512C2.06145 6.42217 2.28109 6.82439 2.45475 7.27304V6.06726C2.24002 6.09449 2.02038 6.09896 1.80164 6.08512Z" fill="#569080"/>
</svg>
