<svg width="30" height="30" viewBox="0 0 30 30" fill="none" xmlns="http://www.w3.org/2000/svg">
<rect width="30" height="30" rx="6" fill="#2D303D"/>
<path d="M21.2856 18.7992C20.4549 18.2872 20.0748 16.6719 20.0748 16.1336V13.8705C20.0748 11.4055 18.3066 9.35478 15.9696 8.91436C16.0316 8.83412 16.0843 8.74611 16.1244 8.65078C16.1849 8.5086 16.2181 8.35127 16.2181 8.1883C16.2183 7.9434 16.1431 7.71281 16.015 7.52378C15.8869 7.33412 15.7062 7.18417 15.4926 7.09365C15.3503 7.03318 15.193 6.99998 15.03 6.99998C14.7853 6.99998 14.5547 7.07516 14.3655 7.20328C14.176 7.33119 14.0259 7.51204 13.9353 7.72561C13.875 7.86802 13.8419 8.02511 13.8419 8.1883C13.8417 8.43275 13.917 8.66358 14.045 8.85281C14.0592 8.87381 14.0744 8.89441 14.0901 8.91436C11.7534 9.35498 9.9852 11.4057 9.9852 13.8705V16.1336C9.9852 16.6719 9.60505 18.2872 8.77431 18.7992C6.15789 20.4118 10.6579 22 15.03 22C19.4021 22 23.9021 20.4118 21.2856 18.7992ZM14.6603 7.93945C14.7087 7.86802 14.7771 7.81113 14.8567 7.77773C14.9098 7.75526 14.9676 7.74266 15.03 7.74266C15.1234 7.74287 15.2075 7.77061 15.2789 7.81869C15.3503 7.86679 15.4072 7.93546 15.4408 8.01506C15.4631 8.068 15.4755 8.12575 15.4755 8.18835C15.4753 8.28181 15.4478 8.3656 15.3996 8.437C15.3515 8.50842 15.2829 8.56532 15.2035 8.59895C15.1503 8.62122 15.0926 8.63381 15.03 8.63381C14.9365 8.63361 14.8527 8.6061 14.7811 8.55799C14.7099 8.50968 14.653 8.44101 14.6194 8.36141C14.5971 8.30847 14.5845 8.25093 14.5845 8.18835C14.5847 8.09463 14.6122 8.01084 14.6603 7.93945Z" fill="#F6E96F"/>
<path d="M21.9568 20.015C21.9568 21.1111 18.8352 21.9999 14.9841 21.9999C11.1334 21.9999 8.01184 21.1111 8.01184 20.015C8.01184 18.9188 11.1334 18.03 14.9841 18.03C18.8352 18.03 21.9568 18.9188 21.9568 20.015Z" fill="#EBD75C"/>
<path d="M15.4462 8.02785C15.5744 8.35568 15.304 8.60963 15.03 8.62454V22C15.7336 22 16.4376 21.9601 17.1365 21.8816C17.9029 21.7954 18.6662 21.6646 19.4128 21.4693C20.0065 21.3132 20.6019 21.1202 21.1426 20.8255C21.4786 20.6428 21.8678 20.3925 22.0129 20.0186C22.1465 19.6744 21.961 19.3497 21.7109 19.1159C21.5078 18.9261 21.2524 18.8076 21.0524 18.6165C20.8143 18.3886 20.641 18.0982 20.5041 17.8012C20.2663 17.2873 20.0746 16.683 20.0746 16.1124V13.9752C20.0746 12.8543 19.7558 11.7722 19.0835 10.867C18.3326 9.85533 17.2092 9.1469 15.9703 8.91376C16.5617 8.14715 15.9974 6.99959 15.03 7V7.7519C15.1898 7.74329 15.3513 7.81615 15.4353 8.00266L15.4378 8.00855C15.4389 8.01063 15.4399 8.01273 15.4408 8.01525C15.4419 8.01821 15.4435 8.0207 15.4444 8.02366C15.4456 8.02642 15.4462 8.02785 15.4462 8.02785Z" fill="#F6D85D"/>
<path d="M13.7244 18.6483C10.8001 18.7851 8.6001 19.378 8.6001 20.0895C8.6001 20.8998 11.4557 21.5568 14.9841 21.5604V18.6187C14.5532 18.6192 14.1316 18.629 13.7244 18.6483Z" fill="#AD8A43"/>
<path d="M16.4383 18.6551C15.9796 18.631 15.5033 18.6185 15.0135 18.6185C15.0039 18.6185 14.994 18.6187 14.9841 18.6187V21.5604C14.994 21.5604 15.0039 21.5606 15.0135 21.5606C18.5558 21.5606 21.4273 20.9022 21.4273 20.0896C21.4273 19.3893 19.2949 18.8034 16.4383 18.6551Z" fill="#9D7A3B"/>
<path d="M16.6525 19.4464C16.6525 20.3153 15.9481 21.0197 15.0796 21.0197C14.2112 21.0197 13.507 20.3153 13.507 19.4464C13.507 19.1551 13.5864 18.8821 13.7245 18.6483C14.1412 18.6285 14.5724 18.6185 15.0137 18.6185C15.5035 18.6185 15.9798 18.6309 16.4385 18.655C16.5748 18.8873 16.6525 19.158 16.6525 19.4464Z" fill="#EDC953"/>
<path d="M14.5136 20.472C14.6923 20.472 14.8372 20.3271 14.8372 20.1483C14.8372 19.9696 14.6923 19.8247 14.5136 19.8247C14.3348 19.8247 14.1899 19.9696 14.1899 20.1483C14.1899 20.3271 14.3348 20.472 14.5136 20.472Z" fill="white"/>
<path d="M11.3544 13.4048C11.3546 12.6722 11.5872 11.9953 11.9835 11.4402C12.3796 10.8856 12.9394 10.4542 13.59 10.2181C13.7442 10.162 13.8238 9.99191 13.7679 9.83754C13.7118 9.68338 13.5415 9.60399 13.3873 9.66006C12.6214 9.93791 11.9653 10.4437 11.4999 11.0951C11.0346 11.7462 10.76 12.5452 10.7603 13.4048C10.7603 13.5686 10.8933 13.7016 11.0572 13.7016C11.2214 13.7016 11.3544 13.5686 11.3544 13.4048Z" fill="white"/>
</svg>
