<svg width="16" height="18" viewBox="0 0 16 18" fill="none" xmlns="http://www.w3.org/2000/svg">
<path d="M10.709 0.00195312C10.7231 0.00129842 10.7377 1.06247e-06 10.752 0C10.962 9.72405e-05 11.1644 0.0734302 11.3252 0.205078L11.3916 0.264648L14.0928 2.9668C14.2631 3.13687 14.3584 3.36746 14.3584 3.60742C14.3584 3.62185 14.3571 3.63613 14.3564 3.65039C14.3569 3.66392 14.3584 3.67782 14.3584 3.69141V8.82031C14.3584 9.16018 14.083 9.43555 13.7432 9.43555C13.4035 9.43536 13.1279 9.16007 13.1279 8.82031V4.5127H10.9541C10.3424 4.5127 9.84579 4.01693 9.8457 3.40527V1.23047H1.23047V16.4102H6.35938C6.69899 16.4104 6.97453 16.6857 6.97461 17.0254C6.97461 17.3651 6.69904 17.6404 6.35938 17.6406H1.10742C0.495805 17.6405 1.69128e-07 17.1449 0 16.5332V1.10742C0.000142213 0.495874 0.495874 0.000142213 1.10742 0H10.668C10.6817 1.74725e-06 10.6953 0.00144578 10.709 0.00195312ZM12.1025 10.667C13.8018 10.667 15.1795 12.044 15.1797 13.7432C15.1797 14.3698 14.9897 14.9523 14.668 15.4385L15.8193 16.5898C16.0597 16.8302 16.0597 17.2206 15.8193 17.4609C15.579 17.701 15.1895 17.7011 14.9492 17.4609L13.7979 16.3096C13.3117 16.6313 12.7292 16.8203 12.1025 16.8203C10.4032 16.8203 9.02539 15.4425 9.02539 13.7432C9.02557 12.044 10.4033 10.667 12.1025 10.667ZM12.1025 11.8975C11.083 11.8975 10.256 12.7237 10.2559 13.7432C10.2559 14.7628 11.0829 15.5898 12.1025 15.5898C12.6133 15.5898 13.0743 15.3826 13.4092 15.0469C13.7429 14.7122 13.9482 14.2522 13.9482 13.7432C13.9481 12.7237 13.122 11.8975 12.1025 11.8975ZM6.35938 9.8457C6.69904 9.84594 6.97461 10.1222 6.97461 10.4619C6.97437 10.8014 6.69889 11.0769 6.35938 11.0771H3.89746C3.55774 11.0771 3.28247 10.8016 3.28223 10.4619C3.28223 10.122 3.5576 9.8457 3.89746 9.8457H6.35938ZM10.4619 6.56445C10.8016 6.56469 11.0771 6.83997 11.0771 7.17969C11.077 7.51929 10.8015 7.79468 10.4619 7.79492H3.89746C3.55768 7.79492 3.28236 7.51944 3.28223 7.17969C3.28223 6.83982 3.5576 6.56445 3.89746 6.56445H10.4619ZM7.17969 3.28223C7.51944 3.28236 7.79492 3.55768 7.79492 3.89746C7.79489 4.23722 7.51942 4.51256 7.17969 4.5127H3.89746C3.55761 4.5127 3.28225 4.2373 3.28223 3.89746C3.28223 3.5576 3.5576 3.28223 3.89746 3.28223H7.17969Z" fill="#93A3B8"/>
</svg>
