<svg width="30" height="30" viewBox="0 0 30 30" fill="none" xmlns="http://www.w3.org/2000/svg">
<rect width="30" height="30" rx="6" fill="#2D303D"/>
<path d="M19.3828 7.05957C19.9697 6.94168 20.5786 6.99998 21.1318 7.22852C21.6852 7.45716 22.1587 7.84586 22.4912 8.34375C22.8234 8.84124 23.0005 9.42623 23 10.0244L22.9961 10.1748C22.959 10.9227 22.6459 11.6327 22.1143 12.165L14.9893 19.3311C14.9386 20.0211 14.7094 20.6882 14.3223 21.2656C13.8821 21.922 13.2568 22.4337 12.5264 22.7354C11.7959 23.0369 10.9918 23.1155 10.2168 22.9609C9.44194 22.8063 8.73063 22.4249 8.17188 21.8662C7.613 21.3073 7.23177 20.5954 7.07715 19.8203C6.92256 19.0452 7.00103 18.2413 7.30273 17.5107C7.60445 16.7803 8.11605 16.1559 8.77246 15.7158C9.34932 15.3291 10.0157 15.0998 10.7051 15.0488L17.835 7.8916L17.915 7.81348C18.3242 7.4314 18.8326 7.17014 19.3828 7.05957ZM20.6221 8.46191C20.3132 8.33439 19.9731 8.30139 19.6455 8.36719C19.3178 8.43304 19.0169 8.59503 18.7812 8.83203V8.83301L11.2705 16.3721H10.9941C10.4675 16.3732 9.95305 16.531 9.51562 16.8242C9.07818 17.1175 8.73717 17.5337 8.53613 18.0205C8.33512 18.5073 8.28273 19.0431 8.38574 19.5596C8.48881 20.076 8.74287 20.5505 9.11523 20.9229C9.48764 21.2952 9.96208 21.5484 10.4785 21.6514C10.995 21.7544 11.5308 21.703 12.0176 21.502C12.5043 21.3009 12.9206 20.9598 13.2139 20.5225C13.5072 20.085 13.6639 19.5697 13.665 19.043L13.666 18.7695L17.3955 15.0166L16.5225 14.1436L17.4668 13.2002L18.3369 14.0703L18.7256 13.6777L17.8574 12.8096L18.8008 11.8652L19.667 12.7314L20.0566 12.3398L19.1914 11.4746L20.1357 10.5312L20.998 11.3936L21.1689 11.2227C21.4866 10.9049 21.665 10.4737 21.665 10.0244L21.6611 9.89941C21.64 9.60898 21.5433 9.32828 21.3809 9.08496C21.1952 8.807 20.931 8.58957 20.6221 8.46191ZM14.4902 16.4561L12.2783 18.668C12.3073 18.7771 12.3242 18.8915 12.3242 19.0098C12.3242 19.7447 11.7281 20.3406 10.9932 20.3408C10.281 20.3408 9.69972 19.7814 9.66406 19.0781L9.66211 19.0098L9.66406 18.9414C9.69974 18.2382 10.2811 17.6787 10.9932 17.6787L11.0615 17.6807C11.1553 17.6854 11.2463 17.7005 11.334 17.7236L13.5459 15.5127L14.4902 16.4561ZM15.9082 15.0381L14.9648 15.9814L14.0215 15.0381L14.9648 14.0947L15.9082 15.0381Z" fill="#FF383C"/>
</svg>
