<svg width="16" height="14" viewBox="0 0 16 14" fill="none" xmlns="http://www.w3.org/2000/svg">
<path d="M4.7406 0.591248H11.5549C11.8827 0.591248 12.1483 0.856879 12.1483 1.18463V2.96265H4.14722V1.18463C4.14722 0.856879 4.41285 0.591248 4.7406 0.591248Z" fill="white"/>
<path d="M12.7395 3.55389H3.55383V1.18463C3.55383 0.531263 4.0851 0 4.73846 0H11.5528C12.2061 0 12.7374 0.531263 12.7374 1.18463V3.55389H12.7395ZM4.7406 2.36926H11.5549V1.18463H4.73846L4.7406 2.36926Z" fill="#333333"/>
<path d="M1.51921 3H14.4808C14.7676 3 15 3.22411 15 3.50063V12.4994C15 12.7759 14.7676 13 14.4808 13H1.51921C1.23243 13 1 12.7759 1 12.4994V3.50063C1 3.2223 1.23243 3 1.51921 3Z" fill="white"/>
<path d="M14.8132 13.9242H1.18463C0.531262 13.9242 0 13.393 0 12.7396V3.25827C0 2.6049 0.531262 2.07364 1.18463 2.07364H14.8132C15.4666 2.07364 15.9979 2.6049 15.9979 3.25827V12.7374C15.9979 13.3908 15.4666 13.9242 14.8132 13.9242ZM1.18463 3.25827V12.7374H14.8132V3.25613H1.18463V3.25827Z" fill="#333333"/>
<path d="M4.14722 7.99893C4.14722 8.50474 4.25067 9.00559 4.45166 9.4729C4.65265 9.9402 4.94725 10.3648 5.31863 10.7225C5.69002 11.0801 6.13091 11.3638 6.61615 11.5574C7.10139 11.751 7.62146 11.8506 8.14668 11.8506C8.6719 11.8506 9.19197 11.751 9.67721 11.5574C10.1624 11.3638 10.6033 11.0801 10.9747 10.7225C11.3461 10.3648 11.6407 9.9402 11.8417 9.4729C12.0427 9.00559 12.1461 8.50474 12.1461 7.99893C12.1461 6.97741 11.7248 5.99773 10.9747 5.2754C10.2247 4.55308 9.20741 4.14728 8.14668 4.14728C7.08596 4.14728 6.06868 4.55308 5.31863 5.2754C4.56859 5.99773 4.14722 6.97741 4.14722 7.99893Z" fill="#8CAAFF"/>
<path d="M8.14668 12.4418C5.61462 12.4418 3.55383 10.4496 3.55383 7.99893C3.55383 5.54827 5.61462 3.55603 8.14668 3.55603C10.6788 3.55603 12.7395 5.55041 12.7395 7.99893C12.7395 10.4474 10.6788 12.4418 8.14668 12.4418ZM8.14668 4.73852C6.26799 4.73852 4.7406 6.19949 4.7406 7.99679C4.7406 9.79408 6.26799 11.2572 8.14668 11.2572C10.0254 11.2572 11.5528 9.79622 11.5528 7.99893C11.5528 6.20163 10.0254 4.73852 8.14668 4.73852Z" fill="#333333"/>
<path d="M6.51648 7.99893C6.51648 8.39152 6.68823 8.76802 6.99396 9.04562C7.29968 9.32323 7.71433 9.47918 8.14669 9.47918C8.57904 9.47918 8.99369 9.32323 9.29941 9.04562C9.60514 8.76802 9.77689 8.39152 9.77689 7.99893C9.77689 7.60634 9.60514 7.22983 9.29941 6.95223C8.99369 6.67463 8.57904 6.51868 8.14669 6.51868C7.71433 6.51868 7.29968 6.67463 6.99396 6.95223C6.68823 7.22983 6.51648 7.60634 6.51648 7.99893Z" fill="white"/>
<path d="M8.14674 10.0726C6.92141 10.0726 5.92529 9.14286 5.92529 7.99893C5.92529 6.855 6.92141 5.92529 8.14674 5.92529C9.37207 5.92529 10.3682 6.855 10.3682 7.99893C10.3682 9.14286 9.37207 10.0726 8.14674 10.0726ZM8.14674 7.10992C7.57478 7.10992 7.10992 7.50837 7.10992 7.99893C7.10992 8.48949 7.57478 8.88794 8.14674 8.88794C8.71871 8.88794 9.18356 8.48949 9.18356 7.99893C9.18356 7.50837 8.71871 7.10992 8.14674 7.10992Z" fill="#333333"/>
</svg>
