<svg width="13" height="16" viewBox="0 0 13 16" fill="none" xmlns="http://www.w3.org/2000/svg">
<path d="M11.375 15.2C11.375 12.549 9.19239 10.4 6.5 10.4C3.80761 10.4 1.625 12.549 1.625 15.2C1.625 15.6418 1.26123 16 0.8125 16C0.363769 16 0 15.6418 0 15.2C0 11.6654 2.91015 8.8 6.5 8.8C10.0899 8.8 13 11.6654 13 15.2C13 15.6418 12.6362 16 12.1875 16C11.7388 16 11.375 15.6418 11.375 15.2ZM8.9375 4C8.9375 2.67452 7.84617 1.6 6.5 1.6C5.1538 1.6 4.0625 2.67452 4.0625 4C4.0625 5.32548 5.1538 6.4 6.5 6.4C7.84617 6.4 8.9375 5.32548 8.9375 4ZM10.5625 4C10.5625 6.20915 8.74362 8 6.5 8C4.25634 8 2.4375 6.20914 2.4375 4C2.4375 1.79086 4.25634 0 6.5 0C8.74362 0 10.5625 1.79085 10.5625 4Z" fill="#909EB4"/>
</svg>
