<svg width="16" height="16" viewBox="0 0 16 16" fill="none" xmlns="http://www.w3.org/2000/svg">
<path d="M5.80243 1.35791C6.70805 -0.452675 9.29234 -0.452671 10.1979 1.35791L15.738 12.438C16.5546 14.0716 15.3662 15.9936 13.5397 15.9937H2.46063C0.634187 15.9937 -0.554272 14.0717 0.26239 12.438L5.80243 1.35791ZM8.73309 2.09033C8.43115 1.48705 7.56923 1.48707 7.26727 2.09033L1.72821 13.1704C1.45603 13.7149 1.85181 14.356 2.46063 14.356H13.5397C14.1485 14.3559 14.5443 13.7149 14.2722 13.1704L8.73309 2.09033ZM7.99969 11.0796C8.45203 11.0796 8.81903 11.4466 8.81903 11.8989C8.81889 12.3511 8.45194 12.7173 7.99969 12.7173C7.54766 12.717 7.18147 12.351 7.18134 11.8989C7.18134 11.4467 7.54757 11.0798 7.99969 11.0796ZM7.99969 5.34619C8.45202 5.34619 8.81902 5.7132 8.81903 6.16553V9.44189C8.81888 9.8941 8.45193 10.2603 7.99969 10.2603C7.54767 10.26 7.18149 9.89394 7.18134 9.44189V6.16553C7.18134 5.71335 7.54758 5.34644 7.99969 5.34619Z" fill="#93A3B8"/>
</svg>
